# xmcd
#
# Track frame offsets: 
#        150
#        14988
#        26713
#        44413
#        67235
#        84563
#        102595
#        117665
#        131930
#        152723
#        170758
#
# Disc length: 2537 seconds
#
# Revision: 16
# Processed by: cddbd v1.5.2PL0 Copyright (c) Steve Scherf et al.
# Submitted via: ExactAudioCopyFreeDBPlugin 1.0
#
DISCID=ac09e70b
DTITLE=Mary Chapin Carpenter - Shooting Straight in the Dark
DYEAR=1990
DGENRE=Country
TTITLE0=Going Out Tonight
TTITLE1=Right Now
TTITLE2=The More Things Change
TTITLE3=When She's Gone
TTITLE4=Middle Ground
TTITLE5=Can't Take Love For Granted
TTITLE6=Down At The Twist And Shout
TTITLE7=Halley Came To Jackson
TTITLE8=What You Didn't Say
TTITLE9=You Win Again
TTITLE10=The Moon And St. Christopher
EXTD=YEAR: 1990
EXTT0=
EXTT1=
EXTT2=
EXTT3=
EXTT4=
EXTT5=
EXTT6=
EXTT7=
EXTT8=
EXTT9=
EXTT10=
PLAYORDER=
